<svg viewBox="21.8335 54.5833 218.3335 152.8337" fill="none" xmlns="http://www.w3.org/2000/svg">
<path d="M21.8335 185.583L54.5835 207.417H174.667L218.333 196.5C230.014 193.552 240.167 186.675 240.167 174.667V87.3333C240.167 81.5427 237.867 75.9893 233.772 71.8948C229.677 67.8003 224.124 65.5 218.333 65.5L174.667 54.5833H54.5835L21.8335 76.4166V98.25H32.7502V120.083H21.8335L21.8335 185.583ZM65.5002 185.583V76.4166H174.667V185.583H65.5002Z" fill="black"/>
<rect x="65" y="76" width="110" height="110" fill="#353535"/>
<path d="M97.3672 125.453C96.638 125.453 96.0651 125.258 95.6484 124.867C95.2318 124.477 95.0234 124.021 95.0234 123.5C95.0234 122.979 95.2318 122.523 95.6484 122.133C96.0651 121.742 96.638 121.547 97.3672 121.547H104.633C105.362 121.547 105.935 121.742 106.352 122.133C106.768 122.523 106.977 122.979 106.977 123.5C106.977 124.021 106.768 124.477 106.352 124.867C105.935 125.258 105.362 125.453 104.633 125.453H97.3672ZM117.367 125.453C116.638 125.453 116.065 125.258 115.648 124.867C115.232 124.477 115.023 124.021 115.023 123.5C115.023 122.979 115.232 122.523 115.648 122.133C116.065 121.742 116.638 121.547 117.367 121.547H124.633C125.362 121.547 125.935 121.742 126.352 122.133C126.768 122.523 126.977 122.979 126.977 123.5C126.977 124.021 126.768 124.477 126.352 124.867C125.935 125.258 125.362 125.453 124.633 125.453H117.367ZM97.3672 120.453C96.638 120.453 96.0651 120.258 95.6484 119.867C95.2318 119.477 95.0234 119.021 95.0234 118.5C95.0234 117.979 95.2318 117.523 95.6484 117.133C96.0651 116.742 96.638 116.547 97.3672 116.547H104.633C105.362 116.547 105.935 116.742 106.352 117.133C106.768 117.523 106.977 117.979 106.977 118.5C106.977 119.021 106.768 119.477 106.352 119.867C105.935 120.258 105.362 120.453 104.633 120.453H97.3672ZM117.367 120.453C116.638 120.453 116.065 120.258 115.648 119.867C115.232 119.477 115.023 119.021 115.023 118.5C115.023 117.979 115.232 117.523 115.648 117.133C116.065 116.742 116.638 116.547 117.367 116.547H124.633C125.362 116.547 125.935 116.742 126.352 117.133C126.768 117.523 126.977 117.979 126.977 118.5C126.977 119.021 126.768 119.477 126.352 119.867C125.935 120.258 125.362 120.453 124.633 120.453H117.367ZM97.3672 115.453C96.638 115.453 96.0651 115.258 95.6484 114.867C95.2318 114.477 95.0234 114.021 95.0234 113.5C95.0234 112.979 95.2318 112.523 95.6484 112.133C96.0651 111.742 96.638 111.547 97.3672 111.547H104.633C105.362 111.547 105.935 111.742 106.352 112.133C106.768 112.523 106.977 112.979 106.977 113.5C106.977 114.021 106.768 114.477 106.352 114.867C105.935 115.258 105.362 115.453 104.633 115.453H97.3672ZM117.367 115.453C116.638 115.453 116.065 115.258 115.648 114.867C115.232 114.477 115.023 114.021 115.023 113.5C115.023 112.979 115.232 112.523 115.648 112.133C116.065 111.742 116.638 111.547 117.367 111.547H124.633C125.362 111.547 125.935 111.742 126.352 112.133C126.768 112.523 126.977 112.979 126.977 113.5C126.977 114.021 126.768 114.477 126.352 114.867C125.935 115.258 125.362 115.453 124.633 115.453H117.367ZM97.3672 110.453C96.638 110.453 96.0651 110.258 95.6484 109.867C95.2318 109.477 95.0234 109.021 95.0234 108.5C95.0234 107.979 95.2318 107.523 95.6484 107.133C96.0651 106.742 96.638 106.547 97.3672 106.547H124.633C125.362 106.547 125.935 106.742 126.352 107.133C126.768 107.523 126.977 107.979 126.977 108.5C126.977 109.021 126.768 109.477 126.352 109.867C125.935 110.258 125.362 110.453 124.633 110.453H97.3672ZM97.3672 105.453C96.638 105.453 96.0651 105.258 95.6484 104.867C95.2318 104.477 95.0234 104.021 95.0234 103.5C95.0234 102.979 95.2318 102.523 95.6484 102.133C96.0651 101.742 96.638 101.547 97.3672 101.547H104.633C105.362 101.547 105.935 101.742 106.352 102.133C106.768 102.523 106.977 102.979 106.977 103.5C106.977 104.021 106.768 104.477 106.352 104.867C105.935 105.258 105.362 105.453 104.633 105.453H97.3672ZM117.367 105.453C116.638 105.453 116.065 105.258 115.648 104.867C115.232 104.477 115.023 104.021 115.023 103.5C115.023 102.979 115.232 102.523 115.648 102.133C116.065 101.742 116.638 101.547 117.367 101.547H124.633C125.362 101.547 125.935 101.742 126.352 102.133C126.768 102.523 126.977 102.979 126.977 103.5C126.977 104.021 126.768 104.477 126.352 104.867C125.935 105.258 125.362 105.453 124.633 105.453H117.367ZM102.367 100.453C101.638 100.453 101.065 100.258 100.648 99.8672C100.232 99.4766 100.023 99.0208 100.023 98.5C100.023 97.9792 100.232 97.5234 100.648 97.1328C101.065 96.7422 101.638 96.5469 102.367 96.5469H119.633C120.362 96.5469 120.935 96.7422 121.352 97.1328C121.768 97.5234 121.977 97.9792 121.977 98.5C121.977 99.0208 121.768 99.4766 121.352 99.8672C120.935 100.258 120.362 100.453 119.633 100.453H102.367ZM107.367 95.4531C106.638 95.4531 106.065 95.2578 105.648 94.8672C105.232 94.4766 105.023 94.0208 105.023 93.5C105.023 92.9792 105.232 92.5234 105.648 92.1328C106.065 91.7422 106.638 91.5469 107.367 91.5469H114.633C115.362 91.5469 115.935 91.7422 116.352 92.1328C116.768 92.5234 116.977 92.9792 116.977 93.5C116.977 94.0208 116.768 94.4766 116.352 94.8672C115.935 95.2578 115.362 95.4531 114.633 95.4531H107.367ZM137.367 110.453C136.638 110.453 136.065 110.258 135.648 109.867C135.232 109.477 135.023 109.021 135.023 108.5C135.023 107.979 135.232 107.523 135.648 107.133C136.065 106.742 136.638 106.547 137.367 106.547H164.633C165.362 106.547 165.935 106.742 166.352 107.133C166.768 107.523 166.977 107.979 166.977 108.5C166.977 109.021 166.768 109.477 166.352 109.867C165.935 110.258 165.362 110.453 164.633 110.453H137.367ZM47.3672 165.453C46.638 165.453 46.0651 165.258 45.6484 164.867C45.2318 164.477 45.0234 164.021 45.0234 163.5C45.0234 162.979 45.2318 162.523 45.6484 162.133C46.0651 161.742 46.638 161.547 47.3672 161.547H54.6328C55.362 161.547 55.9349 161.742 56.3516 162.133C56.7682 162.523 56.9766 162.979 56.9766 163.5C56.9766 164.021 56.7682 164.477 56.3516 164.867C55.9349 165.258 55.362 165.453 54.6328 165.453H47.3672ZM47.3672 160.453C46.638 160.453 46.0651 160.258 45.6484 159.867C45.2318 159.477 45.0234 159.021 45.0234 158.5C45.0234 157.979 45.2318 157.523 45.6484 157.133C46.0651 156.742 46.638 156.547 47.3672 156.547H54.6328C55.362 156.547 55.9349 156.742 56.3516 157.133C56.7682 157.523 56.9766 157.979 56.9766 158.5C56.9766 159.021 56.7682 159.477 56.3516 159.867C55.9349 160.258 55.362 160.453 54.6328 160.453H47.3672ZM47.3672 155.453C46.638 155.453 46.0651 155.258 45.6484 154.867C45.2318 154.477 45.0234 154.021 45.0234 153.5C45.0234 152.979 45.2318 152.523 45.6484 152.133C46.0651 151.742 46.638 151.547 47.3672 151.547H54.6328C55.362 151.547 55.9349 151.742 56.3516 152.133C56.7682 152.523 56.9766 152.979 56.9766 153.5C56.9766 154.021 56.7682 154.477 56.3516 154.867C55.9349 155.258 55.362 155.453 54.6328 155.453H47.3672ZM47.3672 150.453C46.638 150.453 46.0651 150.258 45.6484 149.867C45.2318 149.477 45.0234 149.021 45.0234 148.5C45.0234 147.979 45.2318 147.523 45.6484 147.133C46.0651 146.742 46.638 146.547 47.3672 146.547H54.6328C55.362 146.547 55.9349 146.742 56.3516 147.133C56.7682 147.523 56.9766 147.979 56.9766 148.5C56.9766 149.021 56.7682 149.477 56.3516 149.867C55.9349 150.258 55.362 150.453 54.6328 150.453H47.3672ZM47.3672 145.453C46.638 145.453 46.0651 145.258 45.6484 144.867C45.2318 144.477 45.0234 144.021 45.0234 143.5C45.0234 142.979 45.2318 142.523 45.6484 142.133C46.0651 141.742 46.638 141.547 47.3672 141.547H54.6328C55.362 141.547 55.9349 141.742 56.3516 142.133C56.7682 142.523 56.9766 142.979 56.9766 143.5C56.9766 144.021 56.7682 144.477 56.3516 144.867C55.9349 145.258 55.362 145.453 54.6328 145.453H47.3672ZM47.3672 140.453C46.638 140.453 46.0651 140.258 45.6484 139.867C45.2318 139.477 45.0234 139.021 45.0234 138.5C45.0234 137.979 45.2318 137.523 45.6484 137.133C46.0651 136.742 46.638 136.547 47.3672 136.547H54.6328C55.362 136.547 55.9349 136.742 56.3516 137.133C56.7682 137.523 56.9766 137.979 56.9766 138.5C56.9766 139.021 56.7682 139.477 56.3516 139.867C55.9349 140.258 55.362 140.453 54.6328 140.453H47.3672ZM37.3672 135.453C36.638 135.453 36.0651 135.258 35.6484 134.867C35.2318 134.477 35.0234 134.021 35.0234 133.5C35.0234 132.979 35.2318 132.523 35.6484 132.133C36.0651 131.742 36.638 131.547 37.3672 131.547H64.6328C65.362 131.547 65.9349 131.742 66.3516 132.133C66.7682 132.523 66.9766 132.979 66.9766 133.5C66.9766 134.021 66.7682 134.477 66.3516 134.867C65.9349 135.258 65.362 135.453 64.6328 135.453H37.3672ZM77.3672 165.453C76.638 165.453 76.0651 165.258 75.6484 164.867C75.2318 164.477 75.0234 164.021 75.0234 163.5C75.0234 162.979 75.2318 162.523 75.6484 162.133C76.0651 161.742 76.638 161.547 77.3672 161.547H84.6328C85.362 161.547 85.9349 161.742 86.3516 162.133C86.7682 162.523 86.9766 162.979 86.9766 163.5C86.9766 164.021 86.7682 164.477 86.3516 164.867C85.9349 165.258 85.362 165.453 84.6328 165.453H77.3672ZM77.3672 160.453C76.638 160.453 76.0651 160.258 75.6484 159.867C75.2318 159.477 75.0234 159.021 75.0234 158.5C75.0234 157.979 75.2318 157.523 75.6484 157.133C76.0651 156.742 76.638 156.547 77.3672 156.547H84.6328C85.362 156.547 85.9349 156.742 86.3516 157.133C86.7682 157.523 86.9766 157.979 86.9766 158.5C86.9766 159.021 86.7682 159.477 86.3516 159.867C85.9349 160.258 85.362 160.453 84.6328 160.453H77.3672ZM77.3672 155.453C76.638 155.453 76.0651 155.258 75.6484 154.867C75.2318 154.477 75.0234 154.021 75.0234 153.5C75.0234 152.979 75.2318 152.523 75.6484 152.133C76.0651 151.742 76.638 151.547 77.3672 151.547H84.6328C85.362 151.547 85.9349 151.742 86.3516 152.133C86.7682 152.523 86.9766 152.979 86.9766 153.5C86.9766 154.021 86.7682 154.477 86.3516 154.867C85.9349 155.258 85.362 155.453 84.6328 155.453H77.3672ZM77.3672 150.453C76.638 150.453 76.0651 150.258 75.6484 149.867C75.2318 149.477 75.0234 149.021 75.0234 148.5C75.0234 147.979 75.2318 147.523 75.6484 147.133C76.0651 146.742 76.638 146.547 77.3672 146.547H84.6328C85.362 146.547 85.9349 146.742 86.3516 147.133C86.7682 147.523 86.9766 147.979 86.9766 148.5C86.9766 149.021 86.7682 149.477 86.3516 149.867C85.9349 150.258 85.362 150.453 84.6328 150.453H77.3672ZM97.3672 150.453C96.638 150.453 96.0651 150.258 95.6484 149.867C95.2318 149.477 95.0234 149.021 95.0234 148.5C95.0234 147.979 95.2318 147.523 95.6484 147.133C96.0651 146.742 96.638 146.547 97.3672 146.547H104.633C105.362 146.547 105.935 146.742 106.352 147.133C106.768 147.523 106.977 147.979 106.977 148.5C106.977 149.021 106.768 149.477 106.352 149.867C105.935 150.258 105.362 150.453 104.633 150.453H97.3672ZM77.3672 145.453C76.638 145.453 76.0651 145.258 75.6484 144.867C75.2318 144.477 75.0234 144.021 75.0234 143.5C75.0234 142.979 75.2318 142.523 75.6484 142.133C76.0651 141.742 76.638 141.547 77.3672 141.547H99.6328C100.362 141.547 100.935 141.742 101.352 142.133C101.768 142.523 101.977 142.979 101.977 143.5C101.977 144.021 101.768 144.477 101.352 144.867C100.935 145.258 100.362 145.453 99.6328 145.453H77.3672ZM122.367 165.453C121.638 165.453 121.065 165.258 120.648 164.867C120.232 164.477 120.023 164.021 120.023 163.5C120.023 162.979 120.232 162.523 120.648 162.133C121.065 161.742 121.638 161.547 122.367 161.547H144.633C145.362 161.547 145.935 161.742 146.352 162.133C146.768 162.523 146.977 162.979 146.977 163.5C146.977 164.021 146.768 164.477 146.352 164.867C145.935 165.258 145.362 165.453 144.633 165.453H122.367ZM117.367 160.453C116.638 160.453 116.065 160.258 115.648 159.867C115.232 159.477 115.023 159.021 115.023 158.5C115.023 157.979 115.232 157.523 115.648 157.133C116.065 156.742 116.638 156.547 117.367 156.547H124.633C125.362 156.547 125.935 156.742 126.352 157.133C126.768 157.523 126.977 157.979 126.977 158.5C126.977 159.021 126.768 159.477 126.352 159.867C125.935 160.258 125.362 160.453 124.633 160.453H117.367ZM137.367 160.453C136.638 160.453 136.065 160.258 135.648 159.867C135.232 159.477 135.023 159.021 135.023 158.5C135.023 157.979 135.232 157.523 135.648 157.133C136.065 156.742 136.638 156.547 137.367 156.547H144.633C145.362 156.547 145.935 156.742 146.352 157.133C146.768 157.523 146.977 157.979 146.977 158.5C146.977 159.021 146.768 159.477 146.352 159.867C145.935 160.258 145.362 160.453 144.633 160.453H137.367ZM122.367 155.453C121.638 155.453 121.065 155.258 120.648 154.867C120.232 154.477 120.023 154.021 120.023 153.5C120.023 152.979 120.232 152.523 120.648 152.133C121.065 151.742 121.638 151.547 122.367 151.547H144.633C145.362 151.547 145.935 151.742 146.352 152.133C146.768 152.523 146.977 152.979 146.977 153.5C146.977 154.021 146.768 154.477 146.352 154.867C145.935 155.258 145.362 155.453 144.633 155.453H122.367ZM137.367 150.453C136.638 150.453 136.065 150.258 135.648 149.867C135.232 149.477 135.023 149.021 135.023 148.5C135.023 147.979 135.232 147.523 135.648 147.133C136.065 146.742 136.638 146.547 137.367 146.547H144.633C145.362 146.547 145.935 146.742 146.352 147.133C146.768 147.523 146.977 147.979 146.977 148.5C146.977 149.021 146.768 149.477 146.352 149.867C145.935 150.258 145.362 150.453 144.633 150.453H137.367ZM122.367 145.453C121.638 145.453 121.065 145.258 120.648 144.867C120.232 144.477 120.023 144.021 120.023 143.5C120.023 142.979 120.232 142.523 120.648 142.133C121.065 141.742 121.638 141.547 122.367 141.547H139.633C140.362 141.547 140.935 141.742 141.352 142.133C141.768 142.523 141.977 142.979 141.977 143.5C141.977 144.021 141.768 144.477 141.352 144.867C140.935 145.258 140.362 145.453 139.633 145.453H122.367ZM162.367 165.453C161.638 165.453 161.065 165.258 160.648 164.867C160.232 164.477 160.023 164.021 160.023 163.5C160.023 162.979 160.232 162.523 160.648 162.133C161.065 161.742 161.638 161.547 162.367 161.547H179.633C180.362 161.547 180.935 161.742 181.352 162.133C181.768 162.523 181.977 162.979 181.977 163.5C181.977 164.021 181.768 164.477 181.352 164.867C180.935 165.258 180.362 165.453 179.633 165.453H162.367ZM157.367 160.453C156.638 160.453 156.065 160.258 155.648 159.867C155.232 159.477 155.023 159.021 155.023 158.5C155.023 157.979 155.232 157.523 155.648 157.133C156.065 156.742 156.638 156.547 157.367 156.547H164.633C165.362 156.547 165.935 156.742 166.352 157.133C166.768 157.523 166.977 157.979 166.977 158.5C166.977 159.021 166.768 159.477 166.352 159.867C165.935 160.258 165.362 160.453 164.633 160.453H157.367ZM157.367 155.453C156.638 155.453 156.065 155.258 155.648 154.867C155.232 154.477 155.023 154.021 155.023 153.5C155.023 152.979 155.232 152.523 155.648 152.133C156.065 151.742 156.638 151.547 157.367 151.547H164.633C165.362 151.547 165.935 151.742 166.352 152.133C166.768 152.523 166.977 152.979 166.977 153.5C166.977 154.021 166.768 154.477 166.352 154.867C165.935 155.258 165.362 155.453 164.633 155.453H157.367ZM157.367 150.453C156.638 150.453 156.065 150.258 155.648 149.867C155.232 149.477 155.023 149.021 155.023 148.5C155.023 147.979 155.232 147.523 155.648 147.133C156.065 146.742 156.638 146.547 157.367 146.547H164.633C165.362 146.547 165.935 146.742 166.352 147.133C166.768 147.523 166.977 147.979 166.977 148.5C166.977 149.021 166.768 149.477 166.352 149.867C165.935 150.258 165.362 150.453 164.633 150.453H157.367ZM162.367 145.453C161.638 145.453 161.065 145.258 160.648 144.867C160.232 144.477 160.023 144.021 160.023 143.5C160.023 142.979 160.232 142.523 160.648 142.133C161.065 141.742 161.638 141.547 162.367 141.547H179.633C180.362 141.547 180.935 141.742 181.352 142.133C181.768 142.523 181.977 142.979 181.977 143.5C181.977 144.021 181.768 144.477 181.352 144.867C180.935 145.258 180.362 145.453 179.633 145.453H162.367ZM197.367 165.453C196.638 165.453 196.065 165.258 195.648 164.867C195.232 164.477 195.023 164.021 195.023 163.5C195.023 162.979 195.232 162.523 195.648 162.133C196.065 161.742 196.638 161.547 197.367 161.547H204.633C205.362 161.547 205.935 161.742 206.352 162.133C206.768 162.523 206.977 162.979 206.977 163.5C206.977 164.021 206.768 164.477 206.352 164.867C205.935 165.258 205.362 165.453 204.633 165.453H197.367ZM217.367 165.453C216.638 165.453 216.065 165.258 215.648 164.867C215.232 164.477 215.023 164.021 215.023 163.5C215.023 162.979 215.232 162.523 215.648 162.133C216.065 161.742 216.638 161.547 217.367 161.547H224.633C225.362 161.547 225.935 161.742 226.352 162.133C226.768 162.523 226.977 162.979 226.977 163.5C226.977 164.021 226.768 164.477 226.352 164.867C225.935 165.258 225.362 165.453 224.633 165.453H217.367ZM197.367 160.453C196.638 160.453 196.065 160.258 195.648 159.867C195.232 159.477 195.023 159.021 195.023 158.5C195.023 157.979 195.232 157.523 195.648 157.133C196.065 156.742 196.638 156.547 197.367 156.547H204.633C205.362 156.547 205.935 156.742 206.352 157.133C206.768 157.523 206.977 157.979 206.977 158.5C206.977 159.021 206.768 159.477 206.352 159.867C205.935 160.258 205.362 160.453 204.633 160.453H197.367ZM212.367 160.453C211.638 160.453 211.065 160.258 210.648 159.867C210.232 159.477 210.023 159.021 210.023 158.5C210.023 157.979 210.232 157.523 210.648 157.133C211.065 156.742 211.638 156.547 212.367 156.547H219.633C220.362 156.547 220.935 156.742 221.352 157.133C221.768 157.523 221.977 157.979 221.977 158.5C221.977 159.021 221.768 159.477 221.352 159.867C220.935 160.258 220.362 160.453 219.633 160.453H212.367ZM197.367 155.453C196.638 155.453 196.065 155.258 195.648 154.867C195.232 154.477 195.023 154.021 195.023 153.5C195.023 152.979 195.232 152.523 195.648 152.133C196.065 151.742 196.638 151.547 197.367 151.547H214.633C215.362 151.547 215.935 151.742 216.352 152.133C216.768 152.523 216.977 152.979 216.977 153.5C216.977 154.021 216.768 154.477 216.352 154.867C215.935 155.258 215.362 155.453 214.633 155.453H197.367ZM197.367 150.453C196.638 150.453 196.065 150.258 195.648 149.867C195.232 149.477 195.023 149.021 195.023 148.5C195.023 147.979 195.232 147.523 195.648 147.133C196.065 146.742 196.638 146.547 197.367 146.547H204.633C205.362 146.547 205.935 146.742 206.352 147.133C206.768 147.523 206.977 147.979 206.977 148.5C206.977 149.021 206.768 149.477 206.352 149.867C205.935 150.258 205.362 150.453 204.633 150.453H197.367ZM212.367 150.453C211.638 150.453 211.065 150.258 210.648 149.867C210.232 149.477 210.023 149.021 210.023 148.5C210.023 147.979 210.232 147.523 210.648 147.133C211.065 146.742 211.638 146.547 212.367 146.547H219.633C220.362 146.547 220.935 146.742 221.352 147.133C221.768 147.523 221.977 147.979 221.977 148.5C221.977 149.021 221.768 149.477 221.352 149.867C220.935 150.258 220.362 150.453 219.633 150.453H212.367ZM197.367 145.453C196.638 145.453 196.065 145.258 195.648 144.867C195.232 144.477 195.023 144.021 195.023 143.5C195.023 142.979 195.232 142.523 195.648 142.133C196.065 141.742 196.638 141.547 197.367 141.547H204.633C205.362 141.547 205.935 141.742 206.352 142.133C206.768 142.523 206.977 142.979 206.977 143.5C206.977 144.021 206.768 144.477 206.352 144.867C205.935 145.258 205.362 145.453 204.633 145.453H197.367ZM197.367 140.453C196.638 140.453 196.065 140.258 195.648 139.867C195.232 139.477 195.023 139.021 195.023 138.5C195.023 137.979 195.232 137.523 195.648 137.133C196.065 136.742 196.638 136.547 197.367 136.547H204.633C205.362 136.547 205.935 136.742 206.352 137.133C206.768 137.523 206.977 137.979 206.977 138.5C206.977 139.021 206.768 139.477 206.352 139.867C205.935 140.258 205.362 140.453 204.633 140.453H197.367Z" fill="white"/>
</svg>
